<svg width="73" height="14" viewBox="0 0 73 14" fill="none" xmlns="http://www.w3.org/2000/svg">
<path d="M-0.000113264 13.2018L1.66589 5.03976H4.45189L2.99589 11.9418C2.91189 12.3151 2.72522 12.6231 2.43589 12.8658C2.16522 13.0898 1.85722 13.2018 1.51189 13.2018H-0.000113264ZM1.35789 2.86976L1.42789 2.36576L4.70389 2.98176L4.53589 4.32576L2.00189 3.83576C1.77789 3.78909 1.60989 3.67709 1.49789 3.49976C1.37655 3.32242 1.32989 3.11242 1.35789 2.86976ZM1.67989 0.489757L1.73589 -0.000242949L5.01189 0.629757L4.82989 1.94576L2.29589 1.45576C2.09055 1.40909 1.92722 1.30176 1.80589 1.13376C1.69389 0.94709 1.65189 0.732424 1.67989 0.489757ZM13.1599 3.14976H17.5419L17.4579 3.70976C17.4299 3.89642 17.3552 4.05509 17.2339 4.18576C17.1126 4.30709 16.9632 4.36776 16.7859 4.36776H12.9919L12.7679 5.80976H16.9259L16.1139 11.5078C16.0672 11.7411 15.9786 11.9604 15.8479 12.1658C15.7172 12.3711 15.5539 12.5484 15.3579 12.6978C15.1619 12.8564 14.9519 12.9778 14.7279 13.0618C14.4852 13.1551 14.2379 13.2018 13.9859 13.2018H6.27189C6.01989 13.2018 5.79122 13.1551 5.58589 13.0618C5.38055 12.9684 5.20789 12.8471 5.06789 12.6978C4.91855 12.5484 4.81122 12.3711 4.74589 12.1658C4.68989 11.9604 4.68055 11.7411 4.71789 11.5078L5.52989 5.80976H8.37189L8.23189 6.77576V6.80376L8.18989 7.09776V7.12576L7.55989 11.5218C7.55055 11.6431 7.58789 11.7504 7.67189 11.8438C7.76522 11.9464 7.87722 11.9978 8.00789 11.9978H12.5999C12.7212 11.9978 12.8426 11.9464 12.9639 11.8438C13.0759 11.7598 13.1412 11.6524 13.1599 11.5218L13.8039 7.02776H8.63789L8.80589 5.80976H9.68789L9.92589 4.36776H5.43189L5.51589 3.73776C5.54389 3.56976 5.61855 3.42976 5.73989 3.31776C5.86122 3.20576 6.00122 3.14976 6.15989 3.14976H10.0939L10.2759 1.49776H6.00589L6.06189 1.09176C6.09922 0.858424 6.20655 0.667091 6.38389 0.517757C6.56122 0.368424 6.76189 0.293757 6.98589 0.293757H17.6819L17.6119 0.727758C17.5839 0.942424 17.4906 1.12442 17.3319 1.27376C17.1732 1.42309 16.9912 1.49776 16.7859 1.49776H13.3419L13.1599 3.14976ZM23.6988 13.1458L23.7268 12.4038L19.6388 13.0478C19.0975 13.1411 18.6962 13.0664 18.4348 12.8238C18.1642 12.5811 18.1315 12.1284 18.3368 11.4658L20.3668 5.37576H19.0928L19.1908 4.54976C19.2282 4.32576 19.3262 4.14376 19.4848 4.00376C19.6528 3.85442 19.8442 3.77976 20.0588 3.77976H27.6748L27.5768 4.47976C27.5395 4.74109 27.4228 4.95576 27.2268 5.12376C27.0308 5.29176 26.8162 5.37576 26.5828 5.37576H23.1388L21.3888 10.8078C21.3328 11.0318 21.3935 11.1298 21.5708 11.1018L23.7828 10.7238L23.8388 7.15376H25.5888C25.8315 7.15376 26.0275 7.23776 26.1768 7.40576C26.3355 7.56442 26.4102 7.77442 26.4008 8.03576L26.2468 13.1458H23.6988ZM20.7448 0.153758H27.9968L27.8988 0.895757C27.8708 1.11042 27.7728 1.29242 27.6048 1.44176C27.4462 1.58176 27.2688 1.65176 27.0728 1.65176H19.7648L19.8488 0.951757C19.8862 0.727757 19.9935 0.541091 20.1708 0.391757C20.3482 0.233091 20.5395 0.153758 20.7448 0.153758ZM26.5268 13.2018L29.1308 2.78576H28.5568C28.4355 2.78576 28.3375 2.74376 28.2628 2.65976C28.1882 2.56642 28.1555 2.45442 28.1648 2.32376L28.3608 0.979757H29.4948L29.7468 -0.000242949H32.1828L31.9308 0.979757H35.3608C35.5195 0.979757 35.6502 1.04509 35.7528 1.17576C35.8648 1.29709 35.9115 1.44176 35.8928 1.60976L34.5348 11.6618C34.4788 12.0818 34.2828 12.4458 33.9468 12.7538C33.6202 13.0524 33.2468 13.2018 32.8268 13.2018H30.4188L30.4748 12.7538C30.5122 12.5671 30.6008 12.4084 30.7408 12.2778C30.8808 12.1564 31.0395 12.0958 31.2168 12.0958H31.3988C31.5388 12.0958 31.6648 12.0444 31.7768 11.9418C31.8795 11.8298 31.9402 11.7084 31.9588 11.5778L33.1488 2.78576H31.5808L29.7048 10.7378C29.5275 11.4098 29.1448 11.9884 28.5568 12.4738C27.9782 12.9591 27.3015 13.2018 26.5268 13.2018ZM42.7081 2.08576H44.5141C44.5701 2.08576 44.6214 2.06709 44.6681 2.02976C44.7148 1.98309 44.7428 1.92709 44.7521 1.86176L44.9201 0.769757H43.0021L43.1701 -0.000242949H40.7481C40.6548 -0.000242949 40.5708 0.0324239 40.4961 0.0977575C40.4121 0.163091 40.3561 0.247091 40.3281 0.349758L40.2161 0.769757H38.5361C38.4428 0.769757 38.3541 0.807091 38.2701 0.881757C38.1954 0.94709 38.1488 1.03576 38.1301 1.14776L37.9901 2.08576H39.9361L39.0401 5.51576H37.8781C37.7568 5.51576 37.6448 5.55776 37.5421 5.64176C37.4488 5.73509 37.3881 5.84709 37.3601 5.97776L37.2201 6.94376H38.6621L36.4081 13.2018H38.4661C38.6714 13.2018 38.8674 13.1364 39.0541 13.0058C39.2314 12.8844 39.3668 12.7164 39.4601 12.5018L40.5661 9.46376L40.6781 12.4458C40.7901 12.9498 41.0701 13.2018 41.5181 13.2018H43.2961L43.0301 8.31576C43.0208 8.19442 42.9741 8.09642 42.8901 8.02176C42.8154 7.93776 42.7174 7.89576 42.5961 7.89576H41.0981L41.4201 6.92976L43.7301 6.94376C43.8514 6.94376 43.9634 6.90176 44.0661 6.81776C44.1594 6.72442 44.2154 6.61242 44.2341 6.48176L44.3741 5.51576L41.8121 5.50176L42.7081 2.08576ZM51.0661 11.9278C51.1408 12.0211 51.2388 12.0678 51.3601 12.0678H52.8581C52.9234 12.0678 52.9748 12.0911 53.0121 12.1378C53.0494 12.1751 53.0728 12.2311 53.0821 12.3058L53.1661 13.2018H49.7641C49.4468 13.2018 49.1901 13.0664 48.9941 12.7958C48.7888 12.5251 48.7094 12.2031 48.7561 11.8298L48.8401 11.1998L47.3281 12.7398C47.0108 13.0478 46.6421 13.2018 46.2221 13.2018H43.6741L47.6361 9.23976L48.4621 2.75776C48.4901 2.56176 48.5741 2.39842 48.7141 2.26776C48.8634 2.13709 49.0361 2.07176 49.2321 2.07176H51.0101L49.9881 9.92576H51.0801L50.9821 11.5778C50.9634 11.7084 50.9914 11.8251 51.0661 11.9278ZM46.6421 10.3598H44.4161L45.5361 1.58176C45.5921 1.15242 45.7368 0.788424 45.9701 0.489757C46.2221 0.181757 46.5348 0.0277575 46.9081 0.0277575H47.9161L46.6421 10.3598ZM53.0681 0.0277575C53.4414 0.0277575 53.7168 0.181757 53.8941 0.489757C54.0714 0.788424 54.1321 1.15242 54.0761 1.58176L52.9561 10.3598H50.7721L51.8921 1.49776C51.9014 1.40442 51.8781 1.32509 51.8221 1.25976C51.7754 1.18509 51.7101 1.14776 51.6261 1.14776H48.1961L48.3081 0.0277575H53.0681ZM64.1114 11.2278H65.4694C65.7774 11.2278 66.0434 11.1298 66.2674 10.9338C66.5007 10.7378 66.6407 10.4904 66.6874 10.1918L68.1434 0.251757H66.4774C66.2534 0.251757 66.0574 0.321757 65.8894 0.461757C65.7307 0.592424 65.6327 0.76509 65.5954 0.979757L64.1114 11.2278ZM70.4254 11.5778L72.1194 -0.000242949H69.8094C69.6134 -0.000242949 69.4407 0.0604238 69.2914 0.181757C69.142 0.303091 69.0534 0.461757 69.0254 0.657757L67.4434 11.4938C67.4247 11.6338 67.3547 11.7551 67.2334 11.8578C67.1214 11.9604 66.9907 12.0118 66.8414 12.0118H65.3854C65.1707 12.0118 64.9794 12.0771 64.8114 12.2078C64.6527 12.3478 64.5547 12.5204 64.5174 12.7258L64.4614 13.1178H68.6194C69.058 13.1178 69.4547 12.9638 69.8094 12.6558C70.164 12.3571 70.3694 11.9978 70.4254 11.5778ZM58.4554 0.223758L58.2314 1.67976L58.1894 1.93176V1.97376L57.0414 9.75776H54.9274L56.1314 1.59576C56.178 1.21309 56.346 0.891091 56.6354 0.629757C56.9247 0.359091 57.256 0.223758 57.6294 0.223758H58.4554ZM60.1074 10.2198H61.3254C61.6054 10.2198 61.8107 10.3504 61.9414 10.6118L62.9634 13.1738H61.5634C60.5367 13.1738 59.888 12.6744 59.6174 11.6758L59.4634 11.3118L58.6654 12.3198C58.1707 12.8891 57.564 13.1738 56.8454 13.1738H54.7594L57.9234 9.36576L59.0154 1.93176H61.5634L60.4154 9.78576L60.1074 10.2198ZM63.3134 0.223758C63.6867 0.223758 63.9947 0.359091 64.2374 0.629757C64.4707 0.891091 64.564 1.21309 64.5174 1.59576L63.3134 9.75776H61.2414L62.4314 1.67976C62.4407 1.58642 62.4174 1.51176 62.3614 1.45576C62.296 1.39042 62.212 1.35776 62.1094 1.35776H58.9594H58.9454L59.1134 0.223758H63.3134ZM58.9454 1.35776H58.9594C58.9594 1.35776 58.9547 1.35776 58.9454 1.35776Z" fill="#333333"/>
</svg>
