<svg width="233" height="15" viewBox="0 0 233 15" fill="none" xmlns="http://www.w3.org/2000/svg">
<line x1="0.5" y1="8.5" x2="26.902" y2="8.5" stroke="#5D8084" stroke-opacity="0.19" stroke-linecap="round"/>
<line x1="206.015" y1="8.5" x2="232.417" y2="8.5" stroke="#5D8084" stroke-opacity="0.19" stroke-linecap="round"/>
<path d="M50.8524 5.08H53.6124L51.9324 11.77C51.7224 12.56 51.2924 13.205 50.6424 13.705C49.9924 14.205 49.2774 14.455 48.4974 14.455L50.8524 5.08ZM51.5874 0.369999H54.6774L54.4074 1.075H62.5224C62.6624 1.075 62.7674 1.135 62.8374 1.255C62.9174 1.375 62.9374 1.52 62.8974 1.69L62.1924 3.82H59.0724L59.5074 2.44H53.8674L53.8074 2.59C53.3774 3.41 52.8224 3.82 52.1424 3.82H50.1924L51.5874 0.369999ZM56.6274 12.85C56.5774 13.11 56.4874 13.345 56.3574 13.555C56.2374 13.765 56.0824 13.94 55.8924 14.08C55.7124 14.22 55.5074 14.33 55.2774 14.41C55.0574 14.49 54.8274 14.53 54.5874 14.53H52.4274L52.5474 13.72C52.5674 13.61 52.6174 13.52 52.6974 13.45C52.7774 13.38 52.8724 13.345 52.9824 13.345C53.3624 13.345 53.5724 13.18 53.6124 12.85L54.7974 4.39C54.8174 4.28 54.8674 4.19 54.9474 4.12C55.0374 4.05 55.1324 4.015 55.2324 4.015H57.8574L56.6274 12.85ZM58.6524 5.515C58.6624 5.385 58.7124 5.28 58.8024 5.2C58.8824 5.12 58.9824 5.08 59.1024 5.08H61.4274L61.1424 14.455H59.9124C59.4724 14.455 59.1124 14.315 58.8324 14.035C58.5524 13.755 58.4174 13.405 58.4274 12.985L58.6524 5.515ZM46.7424 0.73L44.2974 5.62H45.7674L44.3574 14.515H46.9224C47.0824 14.515 47.2224 14.465 47.3424 14.365C47.4624 14.265 47.5374 14.13 47.5674 13.96L49.0824 4.39H48.1974L50.1624 0.369999H47.3124C47.0724 0.369999 46.8824 0.489999 46.7424 0.73ZM67.4695 0.834999C67.4895 0.694999 67.5445 0.579999 67.6345 0.489999C67.7345 0.399999 67.8445 0.354999 67.9645 0.354999H71.0995L70.9945 1.045H73.5745L72.0745 12.655C72.0445 12.895 71.9695 13.13 71.8495 13.36C71.7395 13.59 71.5945 13.79 71.4145 13.96C71.2345 14.12 71.0395 14.25 70.8295 14.35C70.6095 14.45 70.3895 14.5 70.1695 14.5H65.0845C64.8645 14.5 64.6595 14.45 64.4695 14.35C64.2795 14.25 64.1245 14.12 64.0045 13.96C63.8645 13.79 63.7695 13.59 63.7195 13.36C63.6595 13.14 63.6495 12.905 63.6895 12.655L65.1895 1.045H67.4245L67.4695 0.834999ZM69.2845 12.97L69.9445 7.855H66.8845L66.2095 12.97C66.1995 13.06 66.2295 13.145 66.2995 13.225C66.3495 13.295 66.4195 13.33 66.5095 13.33H68.8795C68.9795 13.33 69.0645 13.295 69.1345 13.225C69.2145 13.145 69.2645 13.06 69.2845 12.97ZM70.0945 6.67L70.6945 2.155H67.6495L67.0345 6.67H70.0945ZM82.1845 0.984999C82.3245 0.984999 82.4295 1.035 82.4995 1.135C82.5795 1.235 82.6145 1.355 82.6045 1.495L81.1345 12.88C81.0645 13.42 80.8495 13.825 80.4895 14.095C80.1395 14.365 79.7445 14.5 79.3045 14.5H74.9845L75.0445 14.08C75.0745 13.86 75.1645 13.675 75.3145 13.525C75.4745 13.385 75.6545 13.315 75.8545 13.315H77.5195C77.6595 13.315 77.7845 13.26 77.8945 13.15C78.0145 13.04 78.0845 12.915 78.1045 12.775L79.4695 2.305H76.8145C76.3645 3.175 75.7295 3.61 74.9095 3.61H73.5445L74.5645 0.805C74.7145 0.504999 74.9195 0.354999 75.1795 0.354999H77.5045L77.2645 0.984999H82.1845ZM77.5195 9.535L74.9395 8.155C74.6195 7.975 74.4045 7.72 74.2945 7.39C74.1945 7.05 74.2245 6.71 74.3845 6.37L74.7145 5.785L78.1045 7.705L77.5195 9.535ZM98.5766 13.285C98.4266 13.675 98.1616 13.975 97.7816 14.185C97.4016 14.395 97.0116 14.5 96.6116 14.5H86.0966C85.6966 14.5 85.3316 14.395 85.0016 14.185C84.6916 13.965 84.5166 13.66 84.4766 13.27L84.2816 11.185H88.1666L88.2866 13.045C88.3066 13.295 88.4566 13.42 88.7366 13.42H94.9016C95.0216 13.42 95.1416 13.39 95.2616 13.33C95.3616 13.26 95.4316 13.165 95.4716 13.045L97.1966 8.77H83.7116L84.2816 7.585L85.0466 5.785H83.1566L83.2316 5.245C83.2616 5.055 83.3466 4.9 83.4866 4.78C83.6266 4.65 83.7966 4.585 83.9966 4.585H85.5566L86.5616 2.365H83.9966L84.0866 1.75C84.1066 1.58 84.1866 1.435 84.3266 1.315C84.4666 1.215 84.6216 1.165 84.7916 1.165H87.0716L87.2816 0.67C87.3916 0.459999 87.5516 0.354999 87.7616 0.354999H91.1666L90.8066 1.165H102.102L102.042 1.63C102.002 1.84 101.907 2.015 101.757 2.155C101.597 2.295 101.407 2.365 101.187 2.365H90.2816L89.2766 4.585H101.457L101.382 5.065C101.342 5.275 101.247 5.45 101.097 5.59C100.937 5.72 100.752 5.785 100.542 5.785H88.7666L88.0166 7.57H99.2966C99.5666 7.57 99.8116 7.67 100.032 7.87C100.282 8.12 100.382 8.42 100.332 8.77L98.5766 13.285ZM120.849 3.235C120.619 3.455 120.354 3.565 120.054 3.565H107.019L105.789 12.775C105.729 13.245 105.534 13.64 105.204 13.96C104.874 14.29 104.484 14.455 104.034 14.455H102.699L102.909 12.91L102.999 12.265L104.574 0.354999H107.439L107.304 1.345L107.244 1.765L107.139 2.56H117.999C118.089 2.56 118.179 2.525 118.269 2.455C118.349 2.375 118.394 2.285 118.404 2.185L118.509 1.345H107.769L107.889 0.354999H121.539L121.269 2.425C121.229 2.745 121.089 3.015 120.849 3.235ZM121.119 4.06C121.079 4.33 120.964 4.555 120.774 4.735C120.594 4.905 120.379 4.99 120.129 4.99H115.554L115.479 5.59H120.594L120.354 7.315C120.304 7.745 120.114 8.09 119.784 8.35C119.454 8.62 119.079 8.755 118.659 8.755H115.059L114.999 9.19H120.369L119.874 12.985C119.814 13.465 119.629 13.84 119.319 14.11C119.009 14.37 118.634 14.5 118.194 14.5H115.929L115.974 14.155C116.004 13.965 116.084 13.81 116.214 13.69C116.344 13.57 116.499 13.51 116.679 13.51H116.709C116.799 13.51 116.889 13.475 116.979 13.405C117.059 13.325 117.104 13.235 117.114 13.135L117.504 10.18H114.729L114.579 11.29L115.029 11.26L115.074 10.615H115.869C116.179 10.615 116.434 10.735 116.634 10.975C116.834 11.215 116.924 11.5 116.904 11.83L116.784 13.06H114.864L114.924 12.37L109.464 12.805L109.539 12.28C109.559 12.11 109.629 11.965 109.749 11.845C109.869 11.725 110.014 11.66 110.184 11.65L111.879 11.5L112.059 10.18H109.809L109.929 9.19H112.194L112.254 8.755H108.624C108.214 8.755 107.879 8.625 107.619 8.365C107.369 8.105 107.274 7.755 107.334 7.315L107.559 5.59H110.334L110.199 6.595L110.169 6.865L110.094 7.405C110.084 7.505 110.104 7.585 110.154 7.645C110.214 7.715 110.289 7.75 110.379 7.75H112.374L112.539 6.595H110.559L110.694 5.59H112.674L112.749 4.99H107.289L107.304 4.84C107.344 4.57 107.454 4.35 107.634 4.18C107.824 4 108.044 3.91 108.294 3.91H121.149L121.119 4.06ZM117.654 6.595H115.344L115.194 7.75H117.174C117.264 7.75 117.349 7.715 117.429 7.645C117.499 7.585 117.539 7.505 117.549 7.405L117.654 6.595ZM109.644 9.19L109.509 10.18L109.479 10.48L109.029 13.795C108.999 14.005 108.909 14.175 108.759 14.305C108.619 14.435 108.454 14.5 108.264 14.5H106.104L106.809 9.19H109.644ZM138.576 2.62C138.666 2.46 138.791 2.38 138.951 2.38H140.841L138.246 7.69L139.431 12.415H137.976C137.746 12.415 137.541 12.345 137.361 12.205C137.181 12.065 137.061 11.88 137.001 11.65L136.761 10.735L136.326 11.5C135.946 12.11 135.436 12.415 134.796 12.415H133.296L135.936 7.51L134.811 3.13H136.446C136.646 3.13 136.826 3.195 136.986 3.325C137.146 3.445 137.251 3.605 137.301 3.805L137.541 4.765L138.576 2.62ZM138.051 0.745H141.096L141.021 1.24C140.991 1.43 140.906 1.59 140.766 1.72C140.626 1.84 140.466 1.9 140.286 1.9H137.661C137.401 2.52 136.981 2.83 136.401 2.83H134.811L135.561 0.52C135.601 0.409999 135.676 0.354999 135.786 0.354999H138.171L138.051 0.745ZM126.066 12.685C126.176 12.725 126.276 12.745 126.366 12.745L139.191 13.18C139.111 13.61 138.946 13.93 138.696 14.14C138.456 14.35 138.176 14.455 137.856 14.455L125.181 14.035L125.121 14.125C125.011 14.295 124.871 14.4 124.701 14.44C124.521 14.48 124.326 14.495 124.116 14.485C124.076 14.485 124.036 14.485 123.996 14.485H122.151L123.606 4.555H122.586L122.661 3.97C122.691 3.82 122.761 3.695 122.871 3.595C122.991 3.495 123.126 3.445 123.276 3.445H126.681L125.541 11.875C125.521 12.005 125.536 12.12 125.586 12.22C125.636 12.33 125.701 12.42 125.781 12.49C125.861 12.57 125.956 12.635 126.066 12.685ZM124.851 2.62C124.401 2.43 124.081 2.12 123.891 1.69C123.711 1.26 123.701 0.814999 123.861 0.354999L126.726 1.48L126.096 3.115L124.851 2.62ZM128.541 5.11C128.201 5.11 127.926 4.99 127.716 4.75C127.516 4.5 127.441 4.205 127.491 3.865L127.911 0.805H129.861L129.651 2.38H132.561L132.666 1.63H130.011L130.146 0.759999C130.166 0.639999 130.216 0.544999 130.296 0.474999C130.386 0.394999 130.491 0.354999 130.611 0.354999H132.801L132.726 0.805H134.841L134.406 3.865C134.366 4.205 134.211 4.5 133.941 4.75C133.681 4.99 133.376 5.11 133.026 5.11H128.541ZM129.456 3.775C129.446 3.875 129.471 3.96 129.531 4.03C129.591 4.1 129.666 4.135 129.756 4.135H131.976C132.066 4.135 132.151 4.1 132.231 4.03C132.311 3.96 132.356 3.875 132.366 3.775L132.456 3.19H129.531L129.456 3.775ZM126.381 12.415L127.821 6.865H127.056L127.116 6.445C127.136 6.285 127.206 6.155 127.326 6.055C127.446 5.945 127.586 5.89 127.746 5.89H129.231L129.291 5.47H131.676C131.786 5.47 131.876 5.51 131.946 5.59C132.026 5.67 132.056 5.77 132.036 5.89H134.166L134.106 6.31C134.076 6.47 134.001 6.605 133.881 6.715C133.771 6.815 133.636 6.865 133.476 6.865H130.191L130.071 7.345H133.911L133.371 11.17C133.321 11.51 133.161 11.8 132.891 12.04C132.621 12.29 132.321 12.415 131.991 12.415H129.576L129.636 12.04C129.656 11.88 129.726 11.75 129.846 11.65C129.966 11.54 130.106 11.485 130.266 11.485C130.356 11.485 130.441 11.455 130.521 11.395C130.601 11.325 130.651 11.245 130.671 11.155L131.046 8.425H129.786L129.351 10.105C129.161 10.795 128.791 11.355 128.241 11.785C127.701 12.205 127.081 12.415 126.381 12.415ZM141.798 3.595H146.358L145.038 12.685C145.038 12.725 145.043 12.765 145.053 12.805C145.063 12.835 145.078 12.86 145.098 12.88C145.148 12.93 145.213 12.945 145.293 12.925L145.848 12.895C146.008 12.895 146.128 12.94 146.208 13.03C146.288 13.12 146.323 13.235 146.313 13.375L146.178 14.305L143.043 14.485C142.663 14.505 142.358 14.405 142.128 14.185C141.898 13.955 141.808 13.665 141.858 13.315L143.043 5.395H142.248C142.058 5.395 141.903 5.32 141.783 5.17C141.673 5.03 141.628 4.86 141.648 4.66L141.798 3.595ZM145.428 0.354999C145.738 0.354999 145.993 0.454999 146.193 0.655C146.383 0.845 146.478 1.085 146.478 1.375V2.875H144.183C144.033 2.875 143.908 2.84 143.808 2.77C143.768 2.73 143.728 2.685 143.688 2.635C143.658 2.595 143.643 2.54 143.643 2.47V0.354999H145.428ZM155.433 4.87H160.128L160.038 5.5C160.008 5.66 159.928 5.795 159.798 5.905C159.678 6.005 159.533 6.055 159.363 6.055H147.363L147.453 5.44C147.473 5.27 147.543 5.135 147.663 5.035C147.793 4.925 147.943 4.87 148.113 4.87H152.223L152.343 4.03H147.918L147.993 3.475C148.023 3.285 148.108 3.13 148.248 3.01C148.388 2.89 148.553 2.83 148.743 2.83H152.523L152.613 2.155H147.993L148.068 1.705C148.098 1.485 148.193 1.31 148.353 1.18C148.523 1.04 148.718 0.969999 148.938 0.969999H152.793V0.955C152.823 0.774999 152.903 0.63 153.033 0.52C153.163 0.409999 153.318 0.354999 153.498 0.354999H156.078L155.988 0.969999H160.593L160.533 1.42C160.493 1.63 160.388 1.805 160.218 1.945C160.058 2.085 159.868 2.155 159.648 2.155H155.823L155.718 2.83H160.158L160.068 3.385C160.038 3.575 159.953 3.73 159.813 3.85C159.673 3.97 159.508 4.03 159.318 4.03H155.553L155.433 4.87ZM151.158 7.63L151.308 6.52H159.408L158.523 12.655C158.483 12.915 158.403 13.155 158.283 13.375C158.153 13.595 157.993 13.785 157.803 13.945C157.603 14.115 157.388 14.245 157.158 14.335C156.918 14.435 156.673 14.485 156.423 14.485H153.678L153.708 14.245C153.748 13.985 153.863 13.775 154.053 13.615C154.253 13.455 154.483 13.375 154.743 13.375C154.873 13.375 154.998 13.325 155.118 13.225C155.208 13.145 155.263 13.04 155.283 12.91L155.403 12.01H150.168L149.913 13.735C149.883 13.955 149.783 14.135 149.613 14.275C149.453 14.415 149.258 14.485 149.028 14.485H146.613L147.768 6.52H150.963L150.798 7.63L150.768 7.9L150.648 8.725H155.883L156.048 7.63H151.158ZM155.583 10.825L155.718 9.91H150.468L150.348 10.825H155.583ZM180 0.399999L179.205 5.98H176.91C176.69 5.98 176.51 5.9 176.37 5.74C176.23 5.58 176.17 5.385 176.19 5.155L176.715 1.495H171.195C170.975 1.495 170.795 1.415 170.655 1.255C170.525 1.095 170.47 0.909999 170.49 0.699999L170.535 0.399999H180ZM179.145 6.505H179.37H179.73L178.815 13.015C178.755 13.425 178.56 13.775 178.23 14.065C177.9 14.355 177.535 14.5 177.135 14.5H170.655L170.685 14.305C170.725 14.025 170.845 13.8 171.045 13.63C171.255 13.46 171.495 13.375 171.765 13.375H175.11C175.26 13.375 175.4 13.315 175.53 13.195C175.65 13.085 175.72 12.96 175.74 12.82L176.475 7.63H171.15C170.74 7.63 170.41 7.485 170.16 7.195C169.91 6.905 169.815 6.56 169.875 6.16L170.37 2.425H173.475L173.025 5.77C172.995 5.98 173.04 6.155 173.16 6.295C173.28 6.435 173.445 6.505 173.655 6.505H175.425H176.01H179.145ZM165.69 5.41H169.08L167.985 13.165C167.935 13.525 167.765 13.83 167.475 14.08C167.195 14.33 166.875 14.455 166.515 14.455H162.39C162.03 14.455 161.745 14.33 161.535 14.08C161.325 13.83 161.245 13.525 161.295 13.165L162.3 6.04H161.7L163.56 1.675H162.435L162.51 1.06C162.54 0.889999 162.615 0.749999 162.735 0.639999C162.865 0.529999 163.015 0.474999 163.185 0.474999H170.04L169.95 1.12C169.93 1.28 169.86 1.415 169.74 1.525C169.62 1.625 169.48 1.675 169.32 1.675H166.695L165.18 5.41H165.255L164.19 13.06C164.18 13.13 164.195 13.195 164.235 13.255C164.275 13.305 164.34 13.33 164.43 13.33H164.805C164.885 13.33 164.955 13.305 165.015 13.255C165.075 13.195 165.11 13.13 165.12 13.06L166.05 6.535H165.54L165.69 5.41ZM175.47 10.39C175.45 10.52 175.39 10.63 175.29 10.72C175.2 10.8 175.09 10.84 174.96 10.84H168.885L168.99 10.06C169.01 9.94 169.065 9.84 169.155 9.76C169.245 9.68 169.355 9.64 169.485 9.64H175.575L175.47 10.39Z" fill="url(#paint0_linear_945_10954)"/>
<defs>
<linearGradient id="paint0_linear_945_10954" x1="43.8774" y1="7.5" x2="188.877" y2="7.5" gradientUnits="userSpaceOnUse">
<stop stop-color="#EEBB96"/>
<stop offset="1" stop-color="#EB5C4A"/>
</linearGradient>
</defs>
</svg>
